<svg width="404" height="403" viewBox="0 0 404 403" fill="none" xmlns="http://www.w3.org/2000/svg">
  <g style="mix-blend-mode:multiply" opacity="0.8">
    <path
      d="M201.559 398.853C310.667 398.853 399.118 310.462 399.118 201.427C399.118 92.3909 310.667 4 201.559 4C92.4501 4 4 92.3909 4 201.427C4 310.462 92.4501 398.853 201.559 398.853Z"
      stroke="#E3E3FF" stroke-width="7.92" stroke-miterlimit="10" />
    <path
      d="M201.559 383.376C302.114 383.376 383.629 301.914 383.629 201.427C383.629 100.939 302.114 19.4778 201.559 19.4778C101.004 19.4778 19.488 100.939 19.488 201.427C19.488 301.914 101.004 383.376 201.559 383.376Z"
      stroke="#E3E3FF" stroke-width="7.3" stroke-miterlimit="10" />
    <path
      d="M201.559 367.898C293.56 367.898 368.141 293.366 368.141 201.427C368.141 109.487 293.56 34.9556 201.559 34.9556C109.558 34.9556 34.9763 109.487 34.9763 201.427C34.9763 293.366 109.558 367.898 201.559 367.898Z"
      stroke="#E3E3FF" stroke-width="6.68" stroke-miterlimit="10" />
    <path
      d="M201.559 352.42C285.006 352.42 352.653 284.818 352.653 201.427C352.653 118.035 285.006 50.4331 201.559 50.4331C118.112 50.4331 50.4644 118.035 50.4644 201.427C50.4644 284.818 118.112 352.42 201.559 352.42Z"
      stroke="#E3E3FF" stroke-width="6.05" stroke-miterlimit="10" />
    <path
      d="M201.559 336.943C276.452 336.943 337.165 276.27 337.165 201.427C337.165 126.584 276.452 65.9111 201.559 65.9111C126.666 65.9111 65.9526 126.584 65.9526 201.427C65.9526 276.27 126.666 336.943 201.559 336.943Z"
      stroke="#E3E3FF" stroke-width="5.43" stroke-miterlimit="10" />
    <path
      d="M201.559 321.465C267.898 321.465 321.677 267.722 321.677 201.427C321.677 135.131 267.898 81.3887 201.559 81.3887C135.219 81.3887 81.4404 135.131 81.4404 201.427C81.4404 267.722 135.219 321.465 201.559 321.465Z"
      stroke="#E3E3FF" stroke-width="4.81" stroke-miterlimit="10" />
    <path
      d="M201.559 305.987C259.345 305.987 306.189 259.174 306.189 201.427C306.189 143.68 259.345 96.8665 201.559 96.8665C143.773 96.8665 96.929 143.68 96.929 201.427C96.929 259.174 143.773 305.987 201.559 305.987Z"
      stroke="#E3E3FF" stroke-width="4.19" stroke-miterlimit="10" />
    <path
      d="M201.559 290.509C250.791 290.509 290.701 250.626 290.701 201.427C290.701 152.228 250.791 112.344 201.559 112.344C152.327 112.344 112.417 152.228 112.417 201.427C112.417 250.626 152.327 290.509 201.559 290.509Z"
      stroke="#E3E3FF" stroke-width="3.57" stroke-miterlimit="10" />
    <path
      d="M201.559 275.031C242.237 275.031 275.213 242.077 275.213 201.426C275.213 160.776 242.237 127.822 201.559 127.822C160.881 127.822 127.905 160.776 127.905 201.426C127.905 242.077 160.881 275.031 201.559 275.031Z"
      stroke="#E3E3FF" stroke-width="2.95" stroke-miterlimit="10" />
    <path
      d="M201.559 259.547C233.68 259.547 259.719 233.526 259.719 201.427C259.719 169.328 233.68 143.306 201.559 143.306C169.439 143.306 143.4 169.328 143.4 201.427C143.4 233.526 169.439 259.547 201.559 259.547Z"
      stroke="#E3E3FF" stroke-width="2.33" stroke-miterlimit="10" />
    <path
      d="M201.559 244.069C225.126 244.069 244.23 224.978 244.23 201.427C244.23 177.876 225.126 158.784 201.559 158.784C177.992 158.784 158.887 177.876 158.887 201.427C158.887 224.978 177.992 244.069 201.559 244.069Z"
      stroke="#E3E3FF" stroke-width="1.71" stroke-miterlimit="10" />
  </g>
</svg>