<svg xmlns="http://www.w3.org/2000/svg" width="140" height="102" viewBox="0 0 140 102" fill="none">
  <path d="M62.8811 30.0262C79.7361 24.6979 95.6985 22.5473 107.825 23.2877C113.899 23.6586 118.848 24.7453 122.431 26.396C126.012 28.0463 127.931 30.1067 128.629 32.3147C129.327 34.5227 128.941 37.3116 126.959 40.7207C124.976 44.1309 121.551 47.8647 116.794 51.6596C107.297 59.236 92.9988 66.6515 76.1438 71.9798C59.2888 77.3081 43.3264 79.4588 31.1999 78.7184C25.1259 78.3475 20.1771 77.2608 16.5944 75.61C13.0128 73.9598 11.0941 71.8994 10.3961 69.6913C9.69806 67.4833 10.0838 64.6944 12.0659 61.2853C14.0488 57.8752 17.4737 54.1413 22.2307 50.3464C31.7281 42.7701 46.0261 35.3546 62.8811 30.0262Z" stroke="#FF9751" stroke-opacity="0.2" stroke-width="6"/>
  <path d="M58.7541 28.9915C74.8395 21.1297 90.6078 16.5306 103.087 15.4367C109.328 14.8896 114.72 15.2214 118.908 16.441C123.097 17.6604 126.029 19.7493 127.461 22.6804C128.894 25.6114 128.741 29.2083 127.13 33.262C125.519 37.3159 122.468 41.7739 118.202 46.3624C109.672 55.5368 96.356 65.1529 80.2706 73.0147C64.1852 80.8765 48.4169 85.4755 35.9377 86.5695C29.6963 87.1166 24.3046 86.7847 20.1163 85.5652C15.9282 84.3457 12.9961 82.2569 11.5635 79.3258C10.1309 76.3947 10.2841 72.7979 11.895 68.7442C13.5059 64.6903 16.5565 60.2322 20.8226 55.6437C29.3525 46.4694 42.6687 36.8533 58.7541 28.9915Z" stroke="#706CDB" stroke-opacity="0.4"/>
</svg>